<svg id="Layer_1" data-name="Layer 1" xmlns="http://www.w3.org/2000/svg" xmlns:xlink="http://www.w3.org/1999/xlink" viewBox="0 0 68.22 68.22"><defs><style>.cls-1{fill:#fff;}.cls-2{fill:url(#linear-gradient);}</style><linearGradient id="linear-gradient" x1="41.07" y1="13.6" x2="68.16" y2="13.6" gradientUnits="userSpaceOnUse"><stop offset="0" stop-color="#7b7df3"/><stop offset="1" stop-color="#2dcbed"/></linearGradient></defs><path class="cls-1" d="M31.69,68.14A34.13,34.13,0,0,1,32.82,0a1.27,1.27,0,0,1,1.3,1.28V12.22a1.25,1.25,0,0,1-1.21,1.24A20.67,20.67,0,1,0,54.76,35.31,1.26,1.26,0,0,1,56,34.1H66.94a1.27,1.27,0,0,1,1.28,1.31A34.16,34.16,0,0,1,31.69,68.14Z"/><path class="cls-2" d="M66.93,27.15H55.81a1.23,1.23,0,0,1-1.23-1.23V13.64H42.3a1.23,1.23,0,0,1-1.23-1.23V1.29A1.23,1.23,0,0,1,42.3.06H68.16V25.92A1.23,1.23,0,0,1,66.93,27.15Z"/></svg>